<svg width="600" height="300" viewBox="0 0 600 300" fill="none" xmlns="http://www.w3.org/2000/svg">
<mask id="mask0_1_230" style="mask-type:luminance" maskUnits="userSpaceOnUse" x="317" y="0" width="75" height="151">
<path d="M317.329 0H391.987V150.705H317.329V0Z" fill="white"/>
</mask>
<g mask="url(#mask0_1_230)">
<path d="M317.366 -0.0186768V30.8013L361.394 75.3338L317.366 119.857V150.677L391.874 75.3338L317.366 -0.0186768Z" fill="url(#paint0_linear_1_230)"/>
</g>
<mask id="mask1_1_230" style="mask-type:luminance" maskUnits="userSpaceOnUse" x="211" y="0" width="76" height="151">
<path d="M211.362 0H286.02V150.705H211.362V0Z" fill="white"/>
</mask>
<g mask="url(#mask1_1_230)">
<path d="M286.02 30.8013V-0.0186768L211.513 75.3338L286.02 150.677V119.857L241.993 75.3338L286.02 30.8013Z" fill="url(#paint1_linear_1_230)"/>
</g>
<path d="M265.305 75.3335L301.693 38.5367L338.082 75.3335L301.693 112.13L265.305 75.3335Z" fill="url(#paint2_linear_1_230)"/>
<path d="M28.8247 245.603H17.7991V218.216H0V208.873H46.5862V218.216H28.8247V245.603Z" fill="#141414"/>
<path d="M69.7206 208.873H85.6758L103.249 245.339V245.603H91.245L87.9336 238.378H67.3122L63.9632 245.603H52.2602V245.339L69.7206 208.873ZM77.51 216.363L71.1129 230.208H84.1706L77.7734 216.363H77.51Z" fill="#141414"/>
<path d="M136.999 245.603H125.974V233.272L107.986 209.138V208.873H121.195L131.618 223.55H131.881L142.267 208.873H154.949V209.138L136.999 233.385V245.603Z" fill="#141414"/>
<path d="M198.747 245.603H187.721V208.873H205.332L214.815 229.3H215.078L224.862 208.873H242.059V245.603H231.034V216.363H230.77L220.384 238.038H209.058L199.048 216.363H198.747V245.603Z" fill="#141414"/>
<path d="M270.648 208.873H286.603L304.176 245.339V245.603H292.172L288.861 238.378H268.24L264.89 245.603H253.187V245.339L270.648 208.873ZM278.437 216.363L272.04 230.208H285.098L278.701 216.363H278.437Z" fill="#141414"/>
<path d="M334.314 246.473C328.942 246.473 324.737 245.868 321.708 244.658C318.698 243.428 316.524 241.423 315.198 238.643C313.862 235.872 313.204 232.061 313.204 227.219C313.204 222.377 313.862 218.585 315.198 215.833C316.524 213.062 318.698 211.067 321.708 209.856C324.737 208.627 328.942 208.003 334.314 208.003C341.915 208.003 349.197 208.296 356.177 208.873L356.554 218.708C350.429 218.027 343.684 217.441 336.309 216.93C333.148 216.703 329.469 216.542 325.283 216.438V238C328.942 237.877 332.621 237.726 336.309 237.546C342.48 237.272 349.31 236.676 356.817 235.768L356.441 245.603C349.611 246.18 342.235 246.473 334.314 246.473Z" fill="#141414"/>
<path d="M404.706 222.226V208.873H415.732V245.603H404.706V231.607H381.563V245.603H370.538V208.873H381.563V222.226H404.706Z" fill="#141414"/>
<path d="M444.329 208.873H460.284L477.858 245.339V245.603H465.854L462.542 238.378H441.921L438.572 245.603H426.869V245.339L444.329 208.873ZM452.119 216.363L445.721 230.208H458.779L452.382 216.363H452.119Z" fill="#141414"/>
<path d="M489.03 245.603V208.873H515.484C520.677 208.873 524.778 209.469 527.789 210.651C530.799 211.814 532.982 213.715 534.336 216.363C535.691 219.011 536.368 222.633 536.368 227.219C536.368 231.834 535.691 235.466 534.336 238.114C532.982 240.761 530.799 242.681 527.789 243.863C524.778 245.026 520.677 245.603 515.484 245.603H489.03ZM500.055 218.216V236.222H524.327V218.216H500.055Z" fill="#141414"/>
<path d="M574.637 246.473C568.184 246.473 563.141 245.868 559.51 244.658C555.869 243.447 553.244 241.471 551.645 238.719C550.065 235.976 549.274 232.137 549.274 227.219C549.274 222.302 550.065 218.471 551.645 215.72C553.226 212.949 555.832 210.972 559.472 209.781C563.104 208.598 568.165 208.003 574.637 208.003C581.11 208.003 586.161 208.598 589.802 209.781C593.434 210.972 596.049 212.949 597.629 215.72C599.21 218.471 600 222.302 600 227.219C600 232.137 599.21 235.976 597.629 238.719C596.049 241.471 593.434 243.447 589.802 244.658C586.161 245.868 581.11 246.473 574.637 246.473ZM574.637 236.752C579.078 236.752 583.518 236.638 587.958 236.411V217.989C583.01 217.819 578.57 217.724 574.637 217.724C570.695 217.724 566.265 217.819 561.354 217.989V236.411C565.766 236.638 570.197 236.752 574.637 236.752Z" fill="#141414"/>
<defs>
<linearGradient id="paint0_linear_1_230" x1="354.62" y1="-0.0186768" x2="354.62" y2="150.677" gradientUnits="userSpaceOnUse">
<stop stop-color="#FF299D"/>
<stop offset="1" stop-color="#CC006F"/>
</linearGradient>
<linearGradient id="paint1_linear_1_230" x1="248.766" y1="-0.0186768" x2="248.766" y2="150.677" gradientUnits="userSpaceOnUse">
<stop stop-color="#FF299D"/>
<stop offset="1" stop-color="#CC006F"/>
</linearGradient>
<linearGradient id="paint2_linear_1_230" x1="301.693" y1="38.5367" x2="301.693" y2="112.13" gradientUnits="userSpaceOnUse">
<stop stop-color="#FF299D"/>
<stop offset="1" stop-color="#CC006F"/>
</linearGradient>
</defs>
</svg>
